<?xml version="1.0" standalone="no"?>
<!DOCTYPE svg PUBLIC "-//W3C//DTD SVG 20010904//EN"
 "http://www.w3.org/TR/2001/REC-SVG-20010904/DTD/svg10.dtd">
<svg version="1.0" xmlns="http://www.w3.org/2000/svg"
 width="464.000000pt" height="464.000000pt" viewBox="0 0 464.000000 464.000000"
 preserveAspectRatio="xMidYMid meet">
<metadata>
Created by potrace 1.14, written by Peter Selinger 2001-2017
</metadata>
<g transform="translate(0.000000,464.000000) scale(0.100000,-0.100000)"
fill="#000000" stroke="none">
<path d="M640 3925 c-7 -8 -10 -27 -7 -42 4 -20 -1 -31 -19 -46 -29 -23 -30
-30 -3 -66 32 -44 19 -82 -49 -138 -125 -104 -218 -206 -253 -278 -31 -64 -34
-77 -34 -160 0 -127 34 -196 159 -321 97 -96 168 -149 300 -221 l81 -44 -175
4 c-176 3 -219 12 -332 61 -27 12 -35 -21 -12 -44 31 -30 137 -79 221 -101
110 -30 340 -32 468 -4 68 15 128 20 242 20 83 0 155 -3 159 -8 9 -9 -31 -53
-68 -75 -57 -34 -23 -62 74 -62 113 0 157 -52 145 -170 -11 -101 -94 -297
-204 -477 -65 -108 -75 -138 -84 -246 -14 -181 -38 -217 -213 -326 -54 -34
-146 -99 -204 -144 -107 -83 -359 -324 -349 -333 3 -3 54 33 114 81 472 377
1011 603 1599 671 193 23 593 15 779 -15 558 -90 1044 -308 1497 -673 54 -44
98 -75 98 -70 0 17 -223 234 -323 314 -56 45 -152 115 -214 155 -61 41 -124
88 -140 106 -49 56 -130 251 -142 342 -13 94 -13 646 0 666 7 12 11 12 23 -1
15 -15 62 -94 133 -222 21 -37 44 -68 51 -68 16 0 16 59 -2 152 -52 273 -288
689 -470 828 -88 67 -254 172 -311 195 -110 47 -395 62 -545 30 -162 -34 -365
-30 -487 11 -67 22 -159 69 -218 112 -72 51 -164 92 -238 104 -113 19 -156 7
-369 -101 -106 -53 -229 -121 -273 -151 -102 -69 -159 -90 -238 -90 -149 1
-259 92 -259 214 0 70 42 139 148 242 105 103 133 151 134 230 0 66 -29 110
-95 146 -57 31 -77 34 -95 13z m1806 -2006 c89 -31 258 -63 397 -74 82 -6 87
-8 92 -31 3 -13 8 -36 11 -50 3 -15 2 -61 -2 -103 l-6 -76 -102 12 c-55 6
-190 12 -298 12 l-198 1 0 153 c0 83 -3 163 -7 176 -5 21 -4 23 13 17 10 -5
56 -21 100 -37z m-451 -224 c51 -132 55 -120 -39 -139 -106 -23 -285 -72 -363
-102 l-63 -23 16 37 c40 97 101 170 202 243 75 55 150 127 169 163 l16 30 17
-70 c10 -38 31 -100 45 -139z m1414 3 c6 -27 11 -58 11 -68 0 -11 11 -54 25
-97 13 -42 23 -78 22 -79 -1 -1 -42 11 -92 27 -49 16 -95 29 -102 29 -6 0 -14
4 -17 9 -9 13 50 160 85 217 29 44 32 47 45 30 7 -10 18 -40 23 -68z"/>
</g>
</svg>
